<svg width="48" height="48" viewBox="0 0 48 48" fill="none" xmlns="http://www.w3.org/2000/svg">
<g clip-path="url(#clip0_774_184)">
<path d="M43 0H5C2.23858 0 0 2.23858 0 5V43C0 45.7614 2.23858 48 5 48H43C45.7614 48 48 45.7614 48 43V5C48 2.23858 45.7614 0 43 0Z" fill="#222222"/>
<path d="M22.02 13C23.96 13 25.57 13.24 26.85 13.72C28.15 14.2 29.12 14.91 29.76 15.85C30.42 16.77 30.75 17.93 30.75 19.33C30.75 20.19 30.6 20.98 30.3 21.7C30.02 22.42 29.61 23.06 29.07 23.62C28.53 24.18 27.88 24.67 27.12 25.09L33.36 34.42H26.79L22.26 26.62H20.79V34.42H15V13H22.02ZM21.93 17.38H20.79V22.27H21.87C22.47 22.27 22.99 22.19 23.43 22.03C23.89 21.85 24.25 21.57 24.51 21.19C24.77 20.79 24.9 20.26 24.9 19.6C24.9 19.14 24.8 18.75 24.6 18.43C24.4 18.09 24.08 17.83 23.64 17.65C23.2 17.47 22.63 17.38 21.93 17.38Z" fill="#61DAFB"/>
</g>
<defs>
<clipPath id="clip0_774_184">
<rect width="48" height="48" fill="white"/>
</clipPath>
</defs>
</svg>
